REM DIRINDEX 1\2,1\3
REM DIRNAME cjc133,folder01,folder02
TITLE ""
FILE "DISC1Track09.mp3" MP3
  TRACK 01 AUDIO
    TITLE "0:"
    INDEX 01 00:00:00
  TRACK 02 AUDIO
    TITLE "3:cjc133_0370"
    INDEX 01 00:00:15
  TRACK 03 AUDIO
    TITLE "0:"
    INDEX 01 00:01:05
  TRACK 04 AUDIO
    TITLE "2:cjc133_0371"
    INDEX 01 00:01:58
  TRACK 05 AUDIO
    TITLE "2:cjc133_0372"
    INDEX 01 00:04:05
  TRACK 06 AUDIO
    TITLE "2:cjc133_0373"
    INDEX 01 00:06:30
  TRACK 07 AUDIO
    TITLE "0:"
    INDEX 01 00:07:58
  TRACK 08 AUDIO
    TITLE "2:cjc133_0374"
    INDEX 01 00:08:38
  TRACK 09 AUDIO
    TITLE "2:cjc133_0375"
    INDEX 01 00:10:16
  TRACK 10 AUDIO
    TITLE "2:cjc133_0376"
    INDEX 01 00:12:32
  TRACK 11 AUDIO
    TITLE "0:"
    INDEX 01 00:13:61
  TRACK 12 AUDIO
    TITLE "2:cjc133_0377"
    INDEX 01 00:14:33
  TRACK 13 AUDIO
    TITLE "2:cjc133_0378"
    INDEX 01 00:16:55
  TRACK 14 AUDIO
    TITLE "2:cjc133_0379"
    INDEX 01 00:19:46
  TRACK 15 AUDIO
    TITLE "0:"
    INDEX 01 00:21:41
  TRACK 16 AUDIO
    TITLE "2:cjc133_0380"
    INDEX 01 00:22:19
  TRACK 17 AUDIO
    TITLE "2:cjc133_0381"
    INDEX 01 00:23:61
  TRACK 18 AUDIO
    TITLE "2:cjc133_0382"
    INDEX 01 00:25:70
  TRACK 19 AUDIO
    TITLE "0:"
    INDEX 01 00:27:22
  TRACK 20 AUDIO
    TITLE "2:cjc133_0383"
    INDEX 01 00:28:00
  TRACK 21 AUDIO
    TITLE "2:cjc133_0384"
    INDEX 01 00:29:40
  TRACK 22 AUDIO
    TITLE "2:cjc133_0385"
    INDEX 01 00:32:00
  TRACK 23 AUDIO
    TITLE "0:"
    INDEX 01 00:33:44
  TRACK 24 AUDIO
    TITLE "2:cjc133_0386"
    INDEX 01 00:34:14
  TRACK 25 AUDIO
    TITLE "2:cjc133_0387"
    INDEX 01 00:35:43
  TRACK 26 AUDIO
    TITLE "2:cjc133_0388"
    INDEX 01 00:38:10
  TRACK 27 AUDIO
    TITLE "0:"
    INDEX 01 00:39:56
  TRACK 28 AUDIO
    TITLE "2:cjc133_0389"
    INDEX 01 00:40:36
  TRACK 29 AUDIO
    TITLE "2:cjc133_0390"
    INDEX 01 00:41:49
  TRACK 30 AUDIO
    TITLE "2:cjc133_0391"
    INDEX 01 00:43:74
  TRACK 31 AUDIO
    TITLE "0:"
    INDEX 01 00:45:28
  TRACK 32 AUDIO
    TITLE "2:cjc133_0392"
    INDEX 01 00:46:02
  TRACK 33 AUDIO
    TITLE "2:cjc133_0393"
    INDEX 01 00:47:11
  TRACK 34 AUDIO
    TITLE "2:cjc133_0394"
    INDEX 01 00:49:20
  TRACK 35 AUDIO
    TITLE "0:"
    INDEX 01 00:50:46
  TRACK 36 AUDIO
    TITLE "2:cjc133_0395"
    INDEX 01 00:51:24
  TRACK 37 AUDIO
    TITLE "2:cjc133_0396"
    INDEX 01 00:52:43
  TRACK 38 AUDIO
    TITLE "2:cjc133_0397"
    INDEX 01 00:55:08
  TRACK 39 AUDIO
    TITLE "0:"
    INDEX 01 00:56:49
  TRACK 40 AUDIO
    TITLE "2:cjc133_0398"
    INDEX 01 00:57:31
  TRACK 41 AUDIO
    TITLE "2:cjc133_0399"
    INDEX 01 00:59:61
  TRACK 42 AUDIO
    TITLE "2:cjc133_0400"
    INDEX 01 01:02:71
  TRACK 43 AUDIO
    TITLE "0:"
    INDEX 01 01:05:11
  TRACK 44 AUDIO
    TITLE "2:cjc133_0401"
    INDEX 01 01:05:56
  TRACK 45 AUDIO
    TITLE "2:cjc133_0402"
    INDEX 01 01:07:02
  TRACK 46 AUDIO
    TITLE "2:cjc133_0403"
    INDEX 01 01:10:18
  TRACK 47 AUDIO
    TITLE "0:"
    INDEX 01 01:12:38
  TRACK 48 AUDIO
    TITLE "2:cjc133_0404"
    INDEX 01 01:13:10
  TRACK 49 AUDIO
    TITLE "2:cjc133_0405"
    INDEX 01 01:14:37
  TRACK 50 AUDIO
    TITLE "2:cjc133_0406"
    INDEX 01 01:18:17
  TRACK 51 AUDIO
    TITLE "0:"
    INDEX 01 01:21:04
  TRACK 52 AUDIO
    TITLE "2:cjc133_0407"
    INDEX 01 01:21:57
  TRACK 53 AUDIO
    TITLE "2:cjc133_0408"
    INDEX 01 01:23:15
  TRACK 54 AUDIO
    TITLE "2:cjc133_0409"
    INDEX 01 01:26:25
  TRACK 55 AUDIO
    TITLE "0:"
    INDEX 01 01:28:43
  TRACK 56 AUDIO
    TITLE "2:cjc133_0410"
    INDEX 01 01:29:17
  TRACK 57 AUDIO
    TITLE "2:cjc133_0411"
    INDEX 01 01:30:34
  TRACK 58 AUDIO
    TITLE "2:cjc133_0412"
    INDEX 01 01:33:34
  TRACK 59 AUDIO
    TITLE "0:"
    INDEX 01 01:35:41
  TRACK 60 AUDIO
    TITLE "2:cjc133_0413"
    INDEX 01 01:36:21
  TRACK 61 AUDIO
    TITLE "2:cjc133_0414"
    INDEX 01 01:38:43
  TRACK 62 AUDIO
    TITLE "2:cjc133_0415"
    INDEX 01 01:41:50
  TRACK 63 AUDIO
    TITLE "0:"
    INDEX 01 01:43:56
